<svg xmlns="http://www.w3.org/2000/svg" width="564.782" height="774.377" viewBox="0 0 564.782 774.377">
  <g id="Simplify_Icon" data-name="Simplify Icon" transform="translate(-6.013 0)">
    <path id="Path_325" data-name="Path 325" d="M70.965,538.7C23.584,456.634-.107,415.6,10.538,375.875s51.18-63.132,132.249-109.936L491.223,64.77l25.684,44.488c35.105,60.8,52.658,91.2,44.675,121s-38.385,47.347-99.188,82.447L70.965,538.7Z" transform="translate(7.31 235.676)" fill="#fff"/>
    <path id="Path_326" data-name="Path 326" d="M52.589,429.441c-35.1-60.8-52.657-91.2-44.673-121S46.3,261.1,107.1,225.991L498.533,0l25.684,44.488c35.105,60.8,52.658,91.2,44.675,121s-38.385,47.346-99.188,82.451L78.275,473.931Z" transform="translate(0 0)" fill="#fff"/>
  </g>
</svg>
