<svg width="699" height="168" viewBox="0 0 699 168" fill="none" xmlns="http://www.w3.org/2000/svg">
<path d="M21.591 167.07C11.3766 149.378 6.26936 140.532 8.56411 131.968C10.8589 123.404 19.5974 118.359 37.0744 108.268L112.19 64.9002L117.727 74.491C125.295 87.5988 129.079 94.1527 127.358 100.576C125.637 106.999 119.083 110.783 105.975 118.351L21.591 167.07V167.07Z" fill="#3EC0DD"/>
<path d="M16.0537 92.7089C8.48592 79.6011 4.70202 73.0472 6.42308 66.6241C8.14414 60.2011 14.698 56.4172 27.8058 48.8494L112.19 0.130223L117.727 9.72101C125.295 22.8288 129.079 29.3827 127.358 35.8058C125.637 42.2289 119.083 46.0128 105.975 53.5806L21.591 102.3L16.0537 92.7089Z" fill="#3EC0DD"/>
<path d="M241.087 52.8439C238.969 41.0506 229.512 25.9892 204.526 25.9892C185.327 25.9892 168.67 39.3455 168.67 58.3854C168.67 73.3046 178.975 84.6717 195.915 87.9397L209.608 90.4973C216.242 91.7761 220.336 95.4704 220.336 100.586C220.336 106.837 214.972 111.1 206.22 111.1C192.527 111.1 186.316 103.001 185.469 93.7653L165 98.7384C166.412 112.947 178.269 130.992 205.937 130.992C229.794 130.992 242.922 114.936 242.922 99.1647C242.922 84.8138 233.041 72.4521 213.984 68.8999L200.573 66.3423C193.656 65.0635 190.692 61.5113 190.692 56.6803C190.692 51.1389 196.056 45.8816 204.384 45.8816C216.525 45.8816 220.336 53.8385 221.042 58.5274L241.087 52.8439Z" fill="#3C343D"/>
<path d="M275.305 128.861V58.2433H253.848V128.861H275.305ZM252.013 36.6459C252.013 43.6082 257.659 49.2917 264.435 49.2917C271.493 49.2917 277.14 43.6082 277.14 36.6459C277.14 29.6835 271.493 24 264.435 24C257.659 24 252.013 29.6835 252.013 36.6459Z" fill="#3C343D"/>
<path d="M312.735 128.861V88.2239C312.735 81.8299 316.829 76.0043 324.31 76.0043C332.074 76.0043 335.603 81.2616 335.603 87.9397V128.861H356.778V88.0818C356.778 81.8299 360.871 76.0043 368.494 76.0043C376.117 76.0043 379.646 81.2616 379.646 87.9397V128.861H400.397V83.1087C400.397 63.9268 387.692 56.1119 374.423 56.1119C364.965 56.1119 358.189 59.2379 352.684 67.1948C349.155 60.2325 341.956 56.1119 331.933 56.1119C324.31 56.1119 315.276 60.0904 311.747 66.3423V58.2433H291.278V128.861H312.735Z" fill="#3C343D"/>
<path d="M437.151 155.858V123.32C440.398 127.298 447.174 130.424 456.208 130.424C475.83 130.424 489.664 114.936 489.664 93.3391C489.664 72.1679 477.383 56.5382 457.055 56.5382C447.033 56.5382 439.41 60.943 436.446 65.4898V58.2433H415.695V155.858H437.151ZM468.631 93.4812C468.631 105.274 461.149 111.1 452.679 111.1C444.351 111.1 436.869 105.132 436.869 93.4812C436.869 81.6878 444.351 76.0043 452.679 76.0043C461.149 76.0043 468.631 81.6878 468.631 93.4812Z" fill="#3C343D"/>
<path d="M522.141 128.861V25.9892H500.685V128.861H522.141Z" fill="#3C343D"/>
<path d="M559.71 128.861V58.2433H538.253V128.861H559.71ZM536.418 36.6459C536.418 43.6082 542.064 49.2917 548.84 49.2917C555.898 49.2917 561.545 43.6082 561.545 36.6459C561.545 29.6835 555.898 24 548.84 24C542.064 24 536.418 29.6835 536.418 36.6459Z" fill="#3C343D"/>
<path d="M615.632 76.4306V58.2433H600.387V52.8439C600.387 45.0291 605.751 43.324 609.562 43.324C612.95 43.324 614.785 43.7503 615.915 44.0344V26.4155C613.938 25.4209 610.127 24.8525 605.751 24.8525C588.67 24.8525 578.93 35.9354 578.93 52.1335V58.2433H567.778V76.4306H578.93V128.861H600.387V76.4306H615.632Z" fill="#3C343D"/>
<path d="M655.804 156L699 58.2433H676.273L660.745 96.0388L643.664 58.2433H619.666L649.169 119.341L633.218 156H655.804Z" fill="#3C343D"/>
</svg>
